<svg width="14" height="16" viewBox="0 0 14 16" fill="none" xmlns="http://www.w3.org/2000/svg">
<path d="M1.47918 15.5C1.15973 15.5 0.888899 15.3889 0.666677 15.1667C0.444455 14.9444 0.333344 14.6736 0.333344 14.3542V3.125C0.333344 2.80556 0.444455 2.53472 0.666677 2.3125C0.888899 2.09028 1.15973 1.97917 1.47918 1.97917H3.20834V0.3125H3.95834V1.97917H10.1042V0.3125H10.8125V1.97917H12.5208C12.8403 1.97917 13.1111 2.09028 13.3333 2.3125C13.5556 2.53472 13.6667 2.80556 13.6667 3.125V14.3542C13.6667 14.6736 13.5556 14.9444 13.3333 15.1667C13.1111 15.3889 12.8403 15.5 12.5208 15.5H1.47918ZM1.47918 14.8542H12.5208C12.6458 14.8542 12.7604 14.8021 12.8646 14.6979C12.9688 14.5938 13.0208 14.4792 13.0208 14.3542V6.75H0.979177V14.3542C0.979177 14.4792 1.03126 14.5938 1.13543 14.6979C1.23959 14.8021 1.35418 14.8542 1.47918 14.8542ZM0.979177 6.10417H13.0208V3.125C13.0208 3 12.9688 2.88542 12.8646 2.78125C12.7604 2.67708 12.6458 2.625 12.5208 2.625H1.47918C1.35418 2.625 1.23959 2.67708 1.13543 2.78125C1.03126 2.88542 0.979177 3 0.979177 3.125V6.10417ZM0.979177 6.10417V2.625V6.10417ZM7.00001 9.79167C6.83334 9.79167 6.68404 9.72917 6.55209 9.60417C6.42015 9.47917 6.35418 9.32639 6.35418 9.14583C6.35418 8.97917 6.42015 8.83333 6.55209 8.70833C6.68404 8.58333 6.83334 8.52083 7.00001 8.52083C7.16668 8.52083 7.31598 8.58333 7.44793 8.70833C7.57987 8.83333 7.64584 8.97917 7.64584 9.14583C7.64584 9.32639 7.57987 9.47917 7.44793 9.60417C7.31598 9.72917 7.16668 9.79167 7.00001 9.79167ZM3.66668 9.79167C3.50001 9.79167 3.3507 9.72917 3.21876 9.60417C3.08682 9.47917 3.02084 9.32639 3.02084 9.14583C3.02084 8.97917 3.08682 8.83333 3.21876 8.70833C3.3507 8.58333 3.50001 8.52083 3.66668 8.52083C3.83334 8.52083 3.98265 8.58333 4.11459 8.70833C4.24654 8.83333 4.31251 8.97917 4.31251 9.14583C4.31251 9.32639 4.24654 9.47917 4.11459 9.60417C3.98265 9.72917 3.83334 9.79167 3.66668 9.79167ZM10.3333 9.79167C10.1667 9.79167 10.0174 9.72917 9.88543 9.60417C9.75348 9.47917 9.68751 9.32639 9.68751 9.14583C9.68751 8.97917 9.75348 8.83333 9.88543 8.70833C10.0174 8.58333 10.1667 8.52083 10.3333 8.52083C10.5 8.52083 10.6493 8.58333 10.7813 8.70833C10.9132 8.83333 10.9792 8.97917 10.9792 9.14583C10.9792 9.32639 10.9132 9.47917 10.7813 9.60417C10.6493 9.72917 10.5 9.79167 10.3333 9.79167ZM7.00001 13C6.83334 13 6.68404 12.9375 6.55209 12.8125C6.42015 12.6875 6.35418 12.5347 6.35418 12.3542C6.35418 12.1875 6.42015 12.0382 6.55209 11.9062C6.68404 11.7743 6.83334 11.7083 7.00001 11.7083C7.16668 11.7083 7.31598 11.7743 7.44793 11.9062C7.57987 12.0382 7.64584 12.1875 7.64584 12.3542C7.64584 12.5347 7.57987 12.6875 7.44793 12.8125C7.31598 12.9375 7.16668 13 7.00001 13ZM3.66668 13C3.50001 13 3.3507 12.9375 3.21876 12.8125C3.08682 12.6875 3.02084 12.5347 3.02084 12.3542C3.02084 12.1875 3.08682 12.0382 3.21876 11.9062C3.3507 11.7743 3.50001 11.7083 3.66668 11.7083C3.83334 11.7083 3.98265 11.7743 4.11459 11.9062C4.24654 12.0382 4.31251 12.1875 4.31251 12.3542C4.31251 12.5347 4.24654 12.6875 4.11459 12.8125C3.98265 12.9375 3.83334 13 3.66668 13ZM10.3333 13C10.1667 13 10.0174 12.9375 9.88543 12.8125C9.75348 12.6875 9.68751 12.5347 9.68751 12.3542C9.68751 12.1875 9.75348 12.0382 9.88543 11.9062C10.0174 11.7743 10.1667 11.7083 10.3333 11.7083C10.5 11.7083 10.6493 11.7743 10.7813 11.9062C10.9132 12.0382 10.9792 12.1875 10.9792 12.3542C10.9792 12.5347 10.9132 12.6875 10.7813 12.8125C10.6493 12.9375 10.5 13 10.3333 13Z" fill="#484848"/>
</svg>
