<svg width="12" height="9" viewBox="0 0 12 9" fill="none" xmlns="http://www.w3.org/2000/svg">
<path d="M8.79999 6.9H9.99999V5.7M8.79999 2.1H9.99999V3.3M3.19999 2.1H1.99999V3.3M1.99999 5.7V6.9H3.19999M5.99999 6.1C5.57565 6.1 5.16868 5.93143 4.86862 5.63137C4.56856 5.33131 4.39999 4.92435 4.39999 4.5C4.39999 4.07565 4.56856 3.66869 4.86862 3.36863C5.16868 3.06857 5.57565 2.9 5.99999 2.9C6.42434 2.9 6.83131 3.06857 7.13136 3.36863C7.43142 3.66869 7.59999 4.07565 7.59999 4.5C7.59999 4.92435 7.43142 5.33131 7.13136 5.63137C6.83131 5.93143 6.42434 6.1 5.99999 6.1ZM1.19999 0.5H10.8C11.0122 0.5 11.2157 0.584285 11.3657 0.734315C11.5157 0.884344 11.6 1.08783 11.6 1.3V7.7C11.6 7.91217 11.5157 8.11566 11.3657 8.26569C11.2157 8.41571 11.0122 8.5 10.8 8.5H1.19999C0.987821 8.5 0.784338 8.41571 0.634308 8.26569C0.484279 8.11566 0.399994 7.91217 0.399994 7.7V1.3C0.399994 1.08783 0.484279 0.884344 0.634308 0.734315C0.784338 0.584285 0.987821 0.5 1.19999 0.5V0.5Z" stroke="#484848"/>
</svg>
