<svg width="16" height="16" viewBox="0 0 16 16" fill="none" xmlns="http://www.w3.org/2000/svg">
    <path
        d="M4.26666 7.99987L7.46666 10.6665L11.7333 5.3332M7.99999 15.4665C7.01946 15.4665 6.04852 15.2734 5.14262 14.8982C4.23672 14.5229 3.41361 13.9729 2.72026 13.2796C2.02692 12.5863 1.47693 11.7631 1.10169 10.8572C0.726456 9.95134 0.533325 8.98041 0.533325 7.99987C0.533325 7.01933 0.726456 6.0484 1.10169 5.1425C1.47693 4.2366 2.02692 3.41348 2.72026 2.72014C3.41361 2.0268 4.23672 1.4768 5.14262 1.10157C6.04852 0.726334 7.01946 0.533203 7.99999 0.533203C9.98028 0.533203 11.8795 1.31987 13.2797 2.72014C14.68 4.12041 15.4667 6.01959 15.4667 7.99987C15.4667 9.98015 14.68 11.8793 13.2797 13.2796C11.8795 14.6799 9.98028 15.4665 7.99999 15.4665Z"
        stroke="#01944C" stroke-width="1.33333" />
</svg>