<svg width="18" height="18" viewBox="0 0 18 18" fill="none" xmlns="http://www.w3.org/2000/svg">
<path d="M8.43752 13.167H9.68752V8.16699H8.43752V13.167ZM9.00002 6.62533C9.19446 6.62533 9.35766 6.56283 9.4896 6.43783C9.62155 6.31283 9.68752 6.1531 9.68752 5.95866C9.68752 5.76421 9.62155 5.59755 9.4896 5.45866C9.35766 5.31977 9.19446 5.25033 9.00002 5.25033C8.80558 5.25033 8.64238 5.31977 8.51044 5.45866C8.37849 5.59755 8.31252 5.76421 8.31252 5.95866C8.31252 6.1531 8.37849 6.31283 8.51044 6.43783C8.64238 6.56283 8.80558 6.62533 9.00002 6.62533ZM9.00002 17.3337C7.86113 17.3337 6.78474 17.1149 5.77085 16.6774C4.75696 16.2399 3.87155 15.6427 3.1146 14.8857C2.35766 14.1288 1.76044 13.2434 1.32294 12.2295C0.885437 11.2156 0.666687 10.1323 0.666687 8.97949C0.666687 7.8406 0.885437 6.76421 1.32294 5.75033C1.76044 4.73644 2.35766 3.85449 3.1146 3.10449C3.87155 2.35449 4.75696 1.76074 5.77085 1.32324C6.78474 0.885742 7.86808 0.666992 9.02085 0.666992C10.1597 0.666992 11.2361 0.885742 12.25 1.32324C13.2639 1.76074 14.1459 2.35449 14.8959 3.10449C15.6459 3.85449 16.2396 4.73644 16.6771 5.75033C17.1146 6.76421 17.3334 7.84755 17.3334 9.00033C17.3334 10.1392 17.1146 11.2156 16.6771 12.2295C16.2396 13.2434 15.6459 14.1288 14.8959 14.8857C14.1459 15.6427 13.2639 16.2399 12.25 16.6774C11.2361 17.1149 10.1528 17.3337 9.00002 17.3337ZM9.02085 16.0837C10.9792 16.0837 12.6459 15.3927 14.0209 14.0107C15.3959 12.6288 16.0834 10.9517 16.0834 8.97949C16.0834 7.02116 15.3959 5.35449 14.0209 3.97949C12.6459 2.60449 10.9722 1.91699 9.00002 1.91699C7.04169 1.91699 5.37155 2.60449 3.9896 3.97949C2.60766 5.35449 1.91669 7.0281 1.91669 9.00033C1.91669 10.9587 2.60766 12.6288 3.9896 14.0107C5.37155 15.3927 7.04863 16.0837 9.02085 16.0837Z" fill="black"/>
</svg>
