<svg width="18" height="18" viewBox="0 0 18 18" fill="none" xmlns="http://www.w3.org/2000/svg">
<path d="M16.3958 7.85449L16.0417 7.04199L15.2083 6.66699L16.0417 6.29199L16.3958 5.47949L16.7917 6.29199L17.5833 6.66699L16.7917 7.04199L16.3958 7.85449ZM13.8333 4.16699L13.2708 2.95866L12.0417 2.39616L13.2708 1.83366L13.8333 0.604492L14.3958 1.83366L15.625 2.39616L14.3958 2.95866L13.8333 4.16699ZM5.49999 17.6253C5.11111 17.6253 4.7743 17.4969 4.48958 17.2399C4.20486 16.983 4.03472 16.66 3.97916 16.2712H7.02083C6.96527 16.66 6.79513 16.983 6.51041 17.2399C6.22569 17.4969 5.88888 17.6253 5.49999 17.6253ZM2.56249 14.5837V13.9378H8.43749V14.5837H2.56249ZM2.56249 12.2712C1.79861 11.7434 1.19444 11.0975 0.749995 10.3337C0.30555 9.56977 0.0833282 8.70866 0.0833282 7.75033C0.0833282 6.26421 0.614578 4.98991 1.67708 3.92741C2.73958 2.86491 4.01388 2.33366 5.49999 2.33366C6.98611 2.33366 8.26041 2.86491 9.32291 3.92741C10.3854 4.98991 10.9167 6.26421 10.9167 7.75033C10.9167 8.70866 10.6944 9.56977 10.25 10.3337C9.80555 11.0975 9.20138 11.7434 8.43749 12.2712H2.56249ZM2.79166 11.6253H8.22916C8.86805 11.1809 9.36805 10.6219 9.72916 9.94824C10.0903 9.27463 10.2708 8.54199 10.2708 7.75033C10.2708 6.43088 9.80555 5.30588 8.875 4.37533C7.94444 3.44477 6.81944 2.97949 5.49999 2.97949C4.18055 2.97949 3.05555 3.44477 2.12499 4.37533C1.19444 5.30588 0.729162 6.43088 0.729162 7.75033C0.729162 8.54199 0.909717 9.27463 1.27083 9.94824C1.63194 10.6219 2.13888 11.1809 2.79166 11.6253Z" fill="#484848"/>
</svg>
